<svg xmlns="http://www.w3.org/2000/svg" width="720" height="480" viewBox="0 0 720 480" role="img" aria-label="sankey chart: MARTA still carries more airport guests than rideshare, 15 rows, series to" aria-labelledby="mv-fcd552894cfd5cf1-title" aria-describedby="mv-fcd552894cfd5cf1-desc" data-markvis="2" data-chart-type="sankey" data-id="mv-fcd552894cfd5cf1" font-family="Inter, ui-sans-serif, system-ui, -apple-system, &quot;Segoe UI&quot;, sans-serif" font-size="12">
  <title id="mv-fcd552894cfd5cf1-title">MARTA still carries more airport guests than rideshare</title>
  <desc id="mv-fcd552894cfd5cf1-desc">sankey chart. MARTA still carries more airport guests than rideshare. x=from. y=guests. series=to. 15 rows.</desc>
  <text x="40" y="20" text-anchor="start" font-size="15" font-weight="600" fill="#18181B">MARTA still carries more airport guests than rideshare</text>
  <line x1="40" x2="704" y1="26" y2="26" stroke="#18181B" stroke-opacity="0.16" stroke-width="1" data-title-rule="1"/>
  <g data-sankey-links="1">
    <path d="M78 94.53 C221.5 94.53, 221.5 92.17, 365 92.17" fill="none" stroke="#475569" stroke-opacity="0.55" stroke-width="125.06" data-source="Domestic Terminal" data-target="MARTA" data-y="820"/>
    <path d="M78 205.87 C221.5 205.87, 221.5 249.87, 365 249.87" fill="none" stroke="#64748B" stroke-opacity="0.55" stroke-width="97.61" data-source="Domestic Terminal" data-target="Rideshare" data-y="640"/>
    <path d="M78 278.32 C221.5 278.32, 221.5 387.76, 365 387.76" fill="none" stroke="#0F766E" stroke-opacity="0.55" stroke-width="47.28" data-source="Domestic Terminal" data-target="Hotel shuttle" data-y="310"/>
    <path d="M78 316.45 C221.5 316.45, 221.5 450.06, 365 450.06" fill="none" stroke="#334155" stroke-opacity="0.55" stroke-width="28.98" data-source="Domestic Terminal" data-target="Rental car" data-y="190"/>
    <path d="M78 361.05 C221.5 361.05, 221.5 173.63, 365 173.63" fill="none" stroke="#78716C" stroke-opacity="0.55" stroke-width="44.23" data-source="International" data-target="MARTA" data-y="290"/>
    <path d="M78 414.43 C221.5 414.43, 221.5 326.92, 365 326.92" fill="none" stroke="#57534E" stroke-opacity="0.55" stroke-width="62.53" data-source="International" data-target="Rideshare" data-y="410"/>
    <path d="M78 454.85 C221.5 454.85, 221.5 419.31, 365 419.31" fill="none" stroke="#475569" stroke-opacity="0.35750000000000004" stroke-width="18.3" data-source="International" data-target="Hotel shuttle" data-y="120"/>
    <path d="M379 89.24 C522.5 89.24, 522.5 91.48, 666 91.48" fill="none" stroke="#64748B" stroke-opacity="0.35750000000000004" stroke-width="114.47" data-source="MARTA" data-target="Midtown hotels" data-y="780"/>
    <path d="M379 170.69 C522.5 170.69, 522.5 354.95, 666 354.95" fill="none" stroke="#0F766E" stroke-opacity="0.35750000000000004" stroke-width="48.43" data-source="MARTA" data-target="Downtown hotels" data-y="330"/>
    <path d="M379 255.74 C522.5 255.74, 522.5 205.87, 666 205.87" fill="none" stroke="#334155" stroke-opacity="0.35750000000000004" stroke-width="105.67" data-source="Rideshare" data-target="Midtown hotels" data-y="720"/>
    <path d="M379 332.79 C522.5 332.79, 522.5 405.28, 666 405.28" fill="none" stroke="#78716C" stroke-opacity="0.35750000000000004" stroke-width="48.43" data-source="Rideshare" data-target="Downtown hotels" data-y="330"/>
    <path d="M379 385.55 C522.5 385.55, 522.5 282.13, 666 282.13" fill="none" stroke="#57534E" stroke-opacity="0.35750000000000004" stroke-width="41.09" data-source="Hotel shuttle" data-target="Midtown hotels" data-y="280"/>
    <path d="M379 417.11 C522.5 417.11, 522.5 441.88, 666 441.88" fill="none" stroke="#475569" stroke-opacity="0.35750000000000004" stroke-width="22.01" data-source="Hotel shuttle" data-target="Downtown hotels" data-y="150"/>
    <path d="M379 444.92 C522.5 444.92, 522.5 312.63, 666 312.63" fill="none" stroke="#64748B" stroke-opacity="0.35750000000000004" stroke-width="17.61" data-source="Rental car" data-target="Midtown hotels" data-y="120"/>
    <path d="M379 458.86 C522.5 458.86, 522.5 458.66, 666 458.66" fill="none" stroke="#0F766E" stroke-opacity="0.35750000000000004" stroke-width="10.27" data-source="Rental car" data-target="Downtown hotels" data-y="70"/>
  </g>
  <g data-sankey-nodes="1">
    <rect x="64" y="32" width="14" height="298.94" fill="#475569" stroke="#18181B" stroke-opacity="0.16" stroke-width="1" data-node="Domestic Terminal" data-y="1,960"/>
    <rect x="365" y="32" width="14" height="162.91" fill="#64748B" stroke="#18181B" stroke-opacity="0.16" stroke-width="1" data-node="MARTA" data-y="1,110"/>
    <rect x="365" y="202.91" width="14" height="154.1" fill="#64748B" stroke="#18181B" stroke-opacity="0.16" stroke-width="1" data-node="Rideshare" data-y="1,050"/>
    <rect x="365" y="365.01" width="14" height="63.11" fill="#64748B" stroke="#18181B" stroke-opacity="0.16" stroke-width="1" data-node="Hotel shuttle" data-y="430"/>
    <rect x="365" y="436.12" width="14" height="27.88" fill="#64748B" stroke="#18181B" stroke-opacity="0.16" stroke-width="1" data-node="Rental car" data-y="190"/>
    <rect x="64" y="338.94" width="14" height="125.06" fill="#475569" stroke="#18181B" stroke-opacity="0.16" stroke-width="1" data-node="International" data-y="820"/>
    <rect x="666" y="32" width="14" height="289.78" fill="#0F766E" stroke="#18181B" stroke-opacity="0.16" stroke-width="1" data-node="Midtown hotels" data-y="1,900"/>
    <rect x="666" y="329.78" width="14" height="134.22" fill="#0F766E" stroke="#18181B" stroke-opacity="0.16" stroke-width="1" data-node="Downtown hotels" data-y="880"/>
  </g>
  <g fill="#64748B" font-size="10" font-weight="400">
    <text x="82" y="181.47" text-anchor="start" dominant-baseline="middle" data-node-label="Domestic Terminal">Domestic Terminal</text>
    <text x="383" y="113.45" text-anchor="start" dominant-baseline="middle" data-node-label="MARTA">MARTA</text>
    <text x="383" y="279.96" text-anchor="start" dominant-baseline="middle" data-node-label="Rideshare">Rideshare</text>
    <text x="383" y="396.56" text-anchor="start" dominant-baseline="middle" data-node-label="Hotel shuttle">Hotel shuttle</text>
    <text x="383" y="450.06" text-anchor="start" dominant-baseline="middle" data-node-label="Rental car">Rental car</text>
    <text x="82" y="401.47" text-anchor="start" dominant-baseline="middle" data-node-label="International">International</text>
    <text x="662" y="176.89" text-anchor="end" dominant-baseline="middle" data-node-label="Midtown hotels">Midtown hotels</text>
    <text x="662" y="396.89" text-anchor="end" dominant-baseline="middle" data-node-label="Downtown hotels">Downtown hotels</text>
  </g>
</svg>
