<svg xmlns="http://www.w3.org/2000/svg" width="720" height="480" viewBox="0 0 720 480" role="img" aria-label="area chart: Sep led events at 40, 4 rows" aria-labelledby="mv-9d452c57d11455b1-title" aria-describedby="mv-9d452c57d11455b1-desc" data-markvis="2" data-chart-type="area" data-id="mv-9d452c57d11455b1" font-family="Inter, ui-sans-serif, system-ui, -apple-system, &quot;Segoe UI&quot;, sans-serif" font-size="12">
  <title id="mv-9d452c57d11455b1-title">Sep led events at 40</title>
  <desc id="mv-9d452c57d11455b1-desc">area chart. Sep led events at 40. x=month. y=count. 4 rows.</desc>
  <text x="44" y="22" text-anchor="start" font-size="16" font-weight="600" fill="#0A0A0A">Sep led events at 40</text>
  <g fill="none" stroke="#0A0A0A" stroke-opacity="0.08" stroke-width="1">
    <line x1="44" x2="702" y1="351.75" y2="351.75"/>
    <line x1="44" x2="702" y1="141.25" y2="141.25"/>
    <line x1="44" x2="702" y1="36" y2="36"/>
  </g>
  <path d="M44 457 L702 457" fill="none" stroke="#0A0A0A" stroke-opacity="0.18" stroke-width="1"/>
  <g fill="#737373" font-size="11" font-weight="400">
    <text x="36" y="457" text-anchor="end" dominant-baseline="middle">0</text>
    <text x="36" y="351.75" text-anchor="end" dominant-baseline="middle">10</text>
    <text x="36" y="246.5" text-anchor="end" dominant-baseline="middle">20</text>
    <text x="36" y="141.25" text-anchor="end" dominant-baseline="middle">30</text>
    <text x="36" y="36" text-anchor="end" dominant-baseline="middle">40</text>
    <text x="126.25" y="468" text-anchor="middle" font-size="11" data-full-label="Sep">Sep</text>
    <text x="290.75" y="468" text-anchor="middle" font-size="11" data-full-label="Feb">Feb</text>
    <text x="455.25" y="468" text-anchor="middle" font-size="11" data-full-label="Jul">Jul</text>
    <text x="619.75" y="468" text-anchor="middle" font-size="11" data-full-label="Apr">Apr</text>
  </g>
  <g fill="none">
    <path d="M126.25 36 L290.75 351.75 L455.25 141.25 L619.75 246.5 L619.75 457 L126.25 457 Z" fill="#F54900" fill-opacity="0.2" stroke="none" data-series="count"/>
    <path d="M126.25 36 L290.75 351.75 L455.25 141.25 L619.75 246.5" fill="none" stroke="#F54900" stroke-width="2" stroke-linejoin="round" stroke-linecap="round" data-series="count"/>
    <circle cx="126.25" cy="36" r="3" fill="#F54900" stroke="none" data-series="count"/>
    <circle cx="290.75" cy="351.75" r="3" fill="#F54900" stroke="none" data-series="count"/>
    <circle cx="455.25" cy="141.25" r="3" fill="#F54900" stroke="none" data-series="count"/>
    <circle cx="619.75" cy="246.5" r="3" fill="#F54900" stroke="none" data-series="count"/>
  </g>
</svg>
