<svg xmlns="http://www.w3.org/2000/svg" width="720" height="460" viewBox="0 0 720 460" role="img" aria-label="sankey chart: Kitchens still send most Midtown surplus to compost, 14 rows, series to" aria-labelledby="mv-75dec1650bdfdd07-title" aria-describedby="mv-75dec1650bdfdd07-desc" data-markvis="2" data-chart-type="sankey" data-id="mv-75dec1650bdfdd07" font-family="Geist, Inter, ui-sans-serif, system-ui, -apple-system, &quot;Segoe UI&quot;, sans-serif" font-size="12">
  <title id="mv-75dec1650bdfdd07-title">Kitchens still send most Midtown surplus to compost</title>
  <desc id="mv-75dec1650bdfdd07-desc">sankey chart. Kitchens still send most Midtown surplus to compost. x=from. y=pounds. series=to. 14 rows.</desc>
  <rect x="0.5" y="0.5" width="719" height="459" rx="12" fill="none" stroke="#0A0A0A" stroke-opacity="0.08" data-frame="1"/>
  <text x="105.62" y="30" text-anchor="start" font-size="16" font-weight="600" fill="#0A0A0A"><title>Kitchens still send most Midtown surplus to compost</title>Kitchens still send most Midtown surplus to compost</text>
  <g data-sankey-links="1">
    <path d="M143.62 50.8 C240.61 50.8, 240.61 58.8, 337.59 58.8 L337.59 119.29 C240.61 119.29, 240.61 111.29, 143.62 111.29 Z" fill="#F54900" fill-opacity="0.45" stroke="none" data-source="Restaurants" data-target="Food bank" data-y="420"/>
    <path d="M143.62 111.29 C240.61 111.29, 240.61 231, 337.59 231 L337.59 328.94 C240.61 328.94, 240.61 209.23, 143.62 209.23 Z" fill="#F54900" fill-opacity="0.45" stroke="none" data-source="Restaurants" data-target="Compost" data-y="680"/>
    <path d="M143.62 217.23 C240.61 217.23, 240.61 119.29, 337.59 119.29 L337.59 149.54 C240.61 149.54, 240.61 247.48, 143.62 247.48 Z" fill="#FFB900" fill-opacity="0.45" stroke="none" data-source="Caterers" data-target="Food bank" data-y="210"/>
    <path d="M143.62 247.48 C240.61 247.48, 240.61 328.94, 337.59 328.94 L337.59 356.3 C240.61 356.3, 240.61 274.85, 143.62 274.85 Z" fill="#FFB900" fill-opacity="0.45" stroke="none" data-source="Caterers" data-target="Compost" data-y="190"/>
    <path d="M143.62 282.85 C240.61 282.85, 240.61 149.54, 337.59 149.54 L337.59 201.39 C240.61 201.39, 240.61 334.7, 143.62 334.7 Z" fill="#FE9A00" fill-opacity="0.45" stroke="none" data-source="Grocery" data-target="Food bank" data-y="360"/>
    <path d="M143.62 334.7 C240.61 334.7, 240.61 356.3, 337.59 356.3 L337.59 390.87 C240.61 390.87, 240.61 369.27, 143.62 369.27 Z" fill="#FE9A00" fill-opacity="0.45" stroke="none" data-source="Grocery" data-target="Compost" data-y="240"/>
    <path d="M143.62 377.27 C240.61 377.27, 240.61 201.39, 337.59 201.39 L337.59 223 C240.61 223, 240.61 398.87, 143.62 398.87 Z" fill="#F54900" fill-opacity="0.324" stroke="none" data-source="Campus dining" data-target="Food bank" data-y="150"/>
    <path d="M143.62 398.87 C240.61 398.87, 240.61 390.87, 337.59 390.87 L337.59 431.2 C240.61 431.2, 240.61 439.2, 143.62 439.2 Z" fill="#F54900" fill-opacity="0.324" stroke="none" data-source="Campus dining" data-target="Compost" data-y="280"/>
    <path d="M351.59 58.8 C448.57 58.8, 448.57 50, 545.55 50 L545.55 162.35 C448.57 162.35, 448.57 171.14, 351.59 171.14 Z" fill="#009689" fill-opacity="0.45" stroke="none" data-source="Food bank" data-target="Shelters" data-y="780"/>
    <path d="M351.59 171.14 C448.57 171.14, 448.57 170.35, 545.55 170.35 L545.55 200.59 C448.57 200.59, 448.57 201.39, 351.59 201.39 Z" fill="#009689" fill-opacity="0.45" stroke="none" data-source="Food bank" data-target="Pantries" data-y="210"/>
    <path d="M351.59 201.39 C448.57 201.39, 448.57 208.59, 545.55 208.59 L545.55 230.2 C448.57 230.2, 448.57 223, 351.59 223 Z" fill="#009689" fill-opacity="0.45" stroke="none" data-source="Food bank" data-target="Senior meals" data-y="150"/>
    <path d="M351.59 231 C448.57 231, 448.57 238.2, 545.55 238.2 L545.55 356.3 C448.57 356.3, 448.57 349.1, 351.59 349.1 Z" fill="#104E64" fill-opacity="0.45" stroke="none" data-source="Compost" data-target="Urban farms" data-y="820"/>
    <path d="M351.59 349.1 C448.57 349.1, 448.57 364.3, 545.55 364.3 L545.55 406.07 C448.57 406.07, 448.57 390.87, 351.59 390.87 Z" fill="#104E64" fill-opacity="0.45" stroke="none" data-source="Compost" data-target="Parks mulch" data-y="290"/>
    <path d="M351.59 390.87 C448.57 390.87, 448.57 414.07, 545.55 414.07 L545.55 440 C448.57 440, 448.57 416.8, 351.59 416.8 Z" fill="#104E64" fill-opacity="0.45" stroke="none" data-source="Compost" data-target="Community gardens" data-y="180"/>
  </g>
  <g data-sankey-nodes="1">
    <rect x="129.62" y="50.8" width="14" height="158.44" fill="#F54900" stroke="#0A0A0A" stroke-opacity="0.14" stroke-width="1" data-node="Restaurants" data-y="1,100"/>
    <rect x="337.59" y="58.8" width="14" height="164.2" fill="#009689" stroke="#0A0A0A" stroke-opacity="0.14" stroke-width="1" data-node="Food bank" data-y="1,140"/>
    <rect x="337.59" y="231" width="14" height="200.21" fill="#009689" stroke="#0A0A0A" stroke-opacity="0.14" stroke-width="1" data-node="Compost" data-y="1,390"/>
    <rect x="129.62" y="217.23" width="14" height="57.61" fill="#F54900" stroke="#0A0A0A" stroke-opacity="0.14" stroke-width="1" data-node="Caterers" data-y="400"/>
    <rect x="129.62" y="282.85" width="14" height="86.42" fill="#F54900" stroke="#0A0A0A" stroke-opacity="0.14" stroke-width="1" data-node="Grocery" data-y="600"/>
    <rect x="129.62" y="377.27" width="14" height="61.93" fill="#F54900" stroke="#0A0A0A" stroke-opacity="0.14" stroke-width="1" data-node="Campus dining" data-y="430"/>
    <rect x="545.55" y="50" width="14" height="112.35" fill="#104E64" stroke="#0A0A0A" stroke-opacity="0.14" stroke-width="1" data-node="Shelters" data-y="780"/>
    <rect x="545.55" y="170.35" width="14" height="30.25" fill="#104E64" stroke="#0A0A0A" stroke-opacity="0.14" stroke-width="1" data-node="Pantries" data-y="210"/>
    <rect x="545.55" y="208.59" width="14" height="21.6" fill="#104E64" stroke="#0A0A0A" stroke-opacity="0.14" stroke-width="1" data-node="Senior meals" data-y="150"/>
    <rect x="545.55" y="238.2" width="14" height="118.11" fill="#104E64" stroke="#0A0A0A" stroke-opacity="0.14" stroke-width="1" data-node="Urban farms" data-y="820"/>
    <rect x="545.55" y="364.3" width="14" height="41.77" fill="#104E64" stroke="#0A0A0A" stroke-opacity="0.14" stroke-width="1" data-node="Parks mulch" data-y="290"/>
    <rect x="545.55" y="414.07" width="14" height="25.93" fill="#104E64" stroke="#0A0A0A" stroke-opacity="0.14" stroke-width="1" data-node="Community gardens" data-y="180"/>
  </g>
  <g fill="#737373" font-size="12" font-weight="400" stroke="#ffffff" stroke-width="3" stroke-linejoin="round" paint-order="stroke">
    <text x="125.62" y="130.02" text-anchor="end" dominant-baseline="middle" data-node-label="Restaurants"><title>Restaurants</title>Restaurants</text>
    <text x="333.59" y="140.9" text-anchor="end" dominant-baseline="middle" data-node-label="Food bank"><title>Food bank</title>Food bank</text>
    <text x="333.59" y="331.1" text-anchor="end" dominant-baseline="middle" data-node-label="Compost"><title>Compost</title>Compost</text>
    <text x="125.62" y="246.04" text-anchor="end" dominant-baseline="middle" data-node-label="Caterers"><title>Caterers</title>Caterers</text>
    <text x="125.62" y="326.06" text-anchor="end" dominant-baseline="middle" data-node-label="Grocery"><title>Grocery</title>Grocery</text>
    <text x="125.62" y="408.23" text-anchor="end" dominant-baseline="middle" data-node-label="Campus dining"><title>Campus dining</title>Campus dining</text>
    <text x="563.55" y="106.17" text-anchor="start" dominant-baseline="middle" data-node-label="Shelters"><title>Shelters</title>Shelters</text>
    <text x="563.55" y="185.47" text-anchor="start" dominant-baseline="middle" data-node-label="Pantries"><title>Pantries</title>Pantries</text>
    <text x="563.55" y="219.4" text-anchor="start" dominant-baseline="middle" data-node-label="Senior meals"><title>Senior meals</title>Senior meals</text>
    <text x="563.55" y="297.25" text-anchor="start" dominant-baseline="middle" data-node-label="Urban farms"><title>Urban farms</title>Urban farms</text>
    <text x="563.55" y="385.19" text-anchor="start" dominant-baseline="middle" data-node-label="Parks mulch"><title>Parks mulch</title>Parks mulch</text>
    <text x="563.55" y="427.04" text-anchor="start" dominant-baseline="middle" data-node-label="Community gardens"><title>Community gardens</title>Community gardens</text>
  </g>
</svg>
