<svg xmlns="http://www.w3.org/2000/svg" width="720" height="450" viewBox="0 0 720 450" role="img" aria-label="line chart: FPS holds near 60 through the run, 4 rows" aria-labelledby="mv-d49564bd723e6ec0-title" aria-describedby="mv-d49564bd723e6ec0-desc" data-markvis="2" data-chart-type="line" data-id="mv-d49564bd723e6ec0" font-family="ui-sans-serif, system-ui, -apple-system, &quot;Segoe UI&quot;, sans-serif" font-size="12">
  <title id="mv-d49564bd723e6ec0-title">FPS holds near 60 through the run</title>
  <desc id="mv-d49564bd723e6ec0-desc">line chart. FPS holds near 60 through the run. x=minute. y=fps. 4 rows.</desc>
  <text x="48" y="24" text-anchor="start" font-size="16" font-weight="600" fill="#374151"><title>FPS holds near 60 through the run</title>FPS holds near 60 through the run</text>
  <g fill="none" stroke="#374151" stroke-opacity="0.22" stroke-width="1" stroke-dasharray="3 3" data-grid="1">
    <line x1="48" x2="700" y1="342.8" y2="342.8"/>
    <line x1="48" x2="700" y1="266.6" y2="266.6"/>
    <line x1="48" x2="700" y1="114.2" y2="114.2"/>
    <line x1="48" x2="700" y1="38" y2="38"/>
  </g>
  <g fill="none" stroke="#374151" stroke-opacity="0.22" stroke-width="1" stroke-dasharray="3 3" data-grid="1" data-v-grid="1">
    <line x1="56" x2="56" y1="38" y2="419" data-v-grid="1"/>
    <line x1="183.2" x2="183.2" y1="38" y2="419" data-v-grid="1"/>
    <line x1="310.4" x2="310.4" y1="38" y2="419" data-v-grid="1"/>
    <line x1="437.6" x2="437.6" y1="38" y2="419" data-v-grid="1"/>
    <line x1="564.8" x2="564.8" y1="38" y2="419" data-v-grid="1"/>
    <line x1="692" x2="692" y1="38" y2="419" data-v-grid="1"/>
  </g>
  <path d="M48 419 L700 419" fill="none" stroke="#374151" stroke-opacity="0.28" stroke-width="1"/>
  <path d="M48 38 L48 419" fill="none" stroke="#374151" stroke-opacity="0.28" stroke-width="1" data-axis-line="y"/>
  <path d="M56 419 L56 425 M183.2 419 L183.2 425 M310.4 419 L310.4 425 M437.6 419 L437.6 425 M564.8 419 L564.8 425 M692 419 L692 425 M42 419 L48 419 M42 342.8 L48 342.8 M42 266.6 L48 266.6 M42 190.4 L48 190.4 M42 114.2 L48 114.2 M42 38 L48 38" fill="none" stroke="#374151" stroke-opacity="0.28" stroke-width="1" data-axis-ticks="1"/>
  <g fill="#6B7280" font-size="12" font-weight="400">
    <text x="34" y="419" text-anchor="end" dominant-baseline="middle">57</text>
    <text x="34" y="342.8" text-anchor="end" dominant-baseline="middle">58</text>
    <text x="34" y="266.6" text-anchor="end" dominant-baseline="middle">59</text>
    <text x="34" y="190.4" text-anchor="end" dominant-baseline="middle">60</text>
    <text x="34" y="114.2" text-anchor="end" dominant-baseline="middle">61</text>
    <text x="34" y="38" text-anchor="end" dominant-baseline="middle">62</text>
    <text x="56" y="437" text-anchor="middle" font-size="12" data-full-label="0"><title>0</title>0</text>
    <text x="183.2" y="437" text-anchor="middle" font-size="12" data-full-label="1"><title>1</title>1</text>
    <text x="310.4" y="437" text-anchor="middle" font-size="12" data-full-label="2"><title>2</title>2</text>
    <text x="437.6" y="437" text-anchor="middle" font-size="12" data-full-label="3"><title>3</title>3</text>
    <text x="564.8" y="437" text-anchor="middle" font-size="12" data-full-label="4"><title>4</title>4</text>
    <text x="692" y="437" text-anchor="middle" font-size="12" data-full-label="5"><title>5</title>5</text>
  </g>
  <g fill="none">
    <path d="M183.2 190.4 C225.6 241.2 268 342.8 310.4 342.8 C352.8 342.8 395.2 300.47 437.6 266.6 C480 232.73 522.4 165 564.8 114.2" fill="none" stroke="#8884d8" stroke-width="2" stroke-linejoin="round" stroke-linecap="round" data-series="fps"/>
    <circle cx="183.2" cy="190.4" r="3.5" fill="#ffffff" stroke="#8884d8" stroke-width="1.5" data-series="fps"/>
    <circle cx="310.4" cy="342.8" r="3.5" fill="#ffffff" stroke="#8884d8" stroke-width="1.5" data-series="fps"/>
    <circle cx="437.6" cy="266.6" r="3.5" fill="#ffffff" stroke="#8884d8" stroke-width="1.5" data-series="fps"/>
    <circle cx="564.8" cy="114.2" r="3.5" fill="#ffffff" stroke="#8884d8" stroke-width="1.5" data-series="fps"/>
  </g>
</svg>
