<svg xmlns="http://www.w3.org/2000/svg" width="720" height="440" viewBox="0 0 720 440" role="img" aria-label="pie chart: Core still leads product mix at 50% (%), 3 slices" aria-labelledby="mv-e0c3dbc735af8720-title" aria-describedby="mv-e0c3dbc735af8720-desc" data-markvis="2" data-chart-type="pie" data-id="mv-e0c3dbc735af8720" font-family="Arial, Helvetica, &quot;Segoe UI&quot;, sans-serif" font-size="12">
  <title id="mv-e0c3dbc735af8720-title">Core still leads product mix at 50%</title>
  <desc id="mv-e0c3dbc735af8720-desc">pie chart. Core still leads product mix at 50%. x=name. y=value. unit=%. 3 rows. slice sizes are raw values and are not normalized to 100.</desc>
  <text x="56" y="32" text-anchor="start" font-size="21" font-weight="600" fill="#333333"><title>Core still leads product mix at 50%</title>Core still leads product mix at 50%<tspan font-size="13" font-weight="400" fill="#666666"> · %</tspan></text>
  <g font-size="14" font-weight="500" fill="#333333">
    <rect x="56" y="41" width="10" height="10" fill="#7cb5ec" rx="1"/>
    <text x="70" y="50" data-legend="Core">Core</text>
    <rect x="120.72" y="41" width="10" height="10" fill="#434348" rx="1"/>
    <text x="134.72" y="50" data-legend="Addons">Addons</text>
    <rect x="202.8" y="41" width="10" height="10" fill="#90ed7d" rx="1"/>
    <text x="216.8" y="50" data-legend="Other">Other</text>
  </g>
  <rect x="56" y="72" width="644" height="348" fill="none" stroke="#ccd6eb" stroke-width="1" data-plot-border="1"/>
  <g aria-hidden="true" data-pie-label-mode="legend" data-pie-inner-ratio="0">
    <path d="M378 246 L378 127.68 A118.32 118.32 0 0 1 395.63 363 Z" fill="#7cb5ec" stroke="#333333" stroke-opacity="0.42" stroke-width="1.5" data-label="Core" data-raw-value="50"/>
    <path d="M378 246 L395.63 363 A118.32 118.32 0 0 1 260.01 237.16 Z" fill="#434348" stroke="#333333" stroke-opacity="0.42" stroke-width="1.5" data-label="Addons" data-raw-value="30"/>
    <path d="M378 246 L260.01 237.16 A118.32 118.32 0 0 1 378 127.68 Z" fill="#90ed7d" stroke="#333333" stroke-opacity="0.42" stroke-width="1.5" data-label="Other" data-raw-value="25"/>
  </g>
</svg>
