<svg xmlns="http://www.w3.org/2000/svg" width="720" height="480" viewBox="0 0 720 480" role="img" aria-label="sankey chart: Five Points still feeds Midtown before Arts Center, 10 rows, series to" aria-labelledby="mv-f456bfd03bc51c29-title" aria-describedby="mv-f456bfd03bc51c29-desc" data-markvis="2" data-chart-type="sankey" data-id="mv-f456bfd03bc51c29" font-family="ui-sans-serif, system-ui, -apple-system, &quot;Segoe UI&quot;, sans-serif" font-size="12">
  <title id="mv-f456bfd03bc51c29-title">Five Points still feeds Midtown before Arts Center</title>
  <desc id="mv-f456bfd03bc51c29-desc">sankey chart. Five Points still feeds Midtown before Arts Center. x=from. y=riders. series=to. 10 rows.</desc>
  <text x="48" y="24" text-anchor="start" font-size="17" font-weight="600" fill="#171717">Five Points still feeds Midtown before Arts Center</text>
  <g data-sankey-links="1">
    <path d="M86 36 C177.33 36, 177.33 36, 268.67 36 L268.67 194.84 C177.33 194.84, 177.33 191.19, 86 191.19 Z" fill="#3B82F6" fill-opacity="0.45" stroke="none" data-source="North Springs" data-target="Five Points" data-y="620"/>
    <path d="M86 199.19 C177.33 199.19, 177.33 194.84, 268.67 194.84 L268.67 333.19 C177.33 333.19, 177.33 334.36, 86 334.36 Z" fill="#F97316" fill-opacity="0.45" stroke="none" data-source="Airport" data-target="Five Points" data-y="540"/>
    <path d="M86 382.4 C177.33 382.4, 177.33 333.19, 268.67 333.19 L268.67 412.62 C177.33 412.62, 177.33 460, 86 460 Z" fill="#10B981" fill-opacity="0.45" stroke="none" data-source="Doraville" data-target="Five Points" data-y="310"/>
    <path d="M282.67 36 C374 36, 374 36, 465.33 36 L465.33 270.67 C374 270.67, 374 252.62, 282.67 252.62 Z" fill="#A855F7" fill-opacity="0.45" stroke="none" data-source="Five Points" data-target="Midtown" data-y="880"/>
    <path d="M282.67 252.62 C374 252.62, 374 278.67, 465.33 278.67 L465.33 388 C374 388, 374 353.54, 282.67 353.54 Z" fill="#EAB308" fill-opacity="0.45" stroke="none" data-source="Five Points" data-target="Peachtree Center" data-y="410"/>
    <path d="M282.67 353.54 C374 353.54, 374 396, 465.33 396 L465.33 460 C374 460, 374 412.62, 282.67 412.62 Z" fill="#14B8A6" fill-opacity="0.45" stroke="none" data-source="Five Points" data-target="Georgia State" data-y="240"/>
    <path d="M479.33 36 C570.67 36, 570.67 36, 662 36 L662 269.44 C570.67 269.44, 570.67 270.67, 479.33 270.67 Z" fill="#F43F5E" fill-opacity="0.45" stroke="none" data-source="Midtown" data-target="Arts Center" data-y="390"/>
    <path d="M479.33 278.67 C570.67 278.67, 570.67 269.44, 662 269.44 L662 395.14 C570.67 395.14, 570.67 388, 479.33 388 Z" fill="#64748B" fill-opacity="0.45" stroke="none" data-source="Peachtree Center" data-target="Arts Center" data-y="210"/>
    <path d="M86 334.36 C177.33 334.36, 177.33 420.62, 268.67 420.62 L268.67 460 C177.33 460, 177.33 374.4, 86 374.4 Z" fill="#3B82F6" fill-opacity="0.315" stroke="none" data-source="Airport" data-target="College Park" data-y="160"/>
    <path d="M479.33 396 C570.67 396, 570.67 403.14, 662 403.14 L662 460 C570.67 460, 570.67 460, 479.33 460 Z" fill="#F97316" fill-opacity="0.315" stroke="none" data-source="Georgia State" data-target="King Memorial" data-y="95"/>
  </g>
  <g data-sankey-nodes="1">
    <rect x="72" y="36" width="14" height="155.19" fill="#3B82F6" stroke="#171717" stroke-opacity="0.28" stroke-width="1" data-node="North Springs" data-y="620"/>
    <rect x="268.67" y="36" width="14" height="376.62" fill="#F97316" stroke="#171717" stroke-opacity="0.28" stroke-width="1" data-node="Five Points" data-y="1,530"/>
    <rect x="72" y="199.19" width="14" height="175.21" fill="#3B82F6" stroke="#171717" stroke-opacity="0.28" stroke-width="1" data-node="Airport" data-y="700"/>
    <rect x="72" y="382.4" width="14" height="77.6" fill="#3B82F6" stroke="#171717" stroke-opacity="0.28" stroke-width="1" data-node="Doraville" data-y="310"/>
    <rect x="465.33" y="36" width="14" height="234.67" fill="#10B981" stroke="#171717" stroke-opacity="0.28" stroke-width="1" data-node="Midtown" data-y="880"/>
    <rect x="465.33" y="278.67" width="14" height="109.33" fill="#10B981" stroke="#171717" stroke-opacity="0.28" stroke-width="1" data-node="Peachtree Center" data-y="410"/>
    <rect x="465.33" y="396" width="14" height="64" fill="#10B981" stroke="#171717" stroke-opacity="0.28" stroke-width="1" data-node="Georgia State" data-y="240"/>
    <rect x="662" y="36" width="14" height="359.14" fill="#A855F7" stroke="#171717" stroke-opacity="0.28" stroke-width="1" data-node="Arts Center" data-y="600"/>
    <rect x="268.67" y="420.62" width="14" height="39.38" fill="#F97316" stroke="#171717" stroke-opacity="0.28" stroke-width="1" data-node="College Park" data-y="160"/>
    <rect x="662" y="403.14" width="14" height="56.86" fill="#A855F7" stroke="#171717" stroke-opacity="0.28" stroke-width="1" data-node="King Memorial" data-y="95"/>
  </g>
  <g fill="#737373" font-size="10" font-weight="400">
    <text x="68" y="113.6" text-anchor="end" dominant-baseline="middle" data-node-label="North Springs">North Springs</text>
    <text x="264.67" y="224.31" text-anchor="end" dominant-baseline="middle" data-node-label="Five Points">Five Points</text>
    <text x="68" y="286.8" text-anchor="end" dominant-baseline="middle" data-node-label="Airport">Airport</text>
    <text x="68" y="421.2" text-anchor="end" dominant-baseline="middle" data-node-label="Doraville">Doraville</text>
    <text x="483.33" y="153.33" text-anchor="start" dominant-baseline="middle" data-node-label="Midtown">Midtown</text>
    <text x="483.33" y="333.33" text-anchor="start" dominant-baseline="middle" data-node-label="Peachtree Center">Peachtree Center</text>
    <text x="483.33" y="428" text-anchor="start" dominant-baseline="middle" data-node-label="Georgia State">Georgia State</text>
    <text x="680" y="215.57" text-anchor="start" dominant-baseline="middle" data-node-label="Arts Center">Arts Center</text>
    <text x="264.67" y="440.31" text-anchor="end" dominant-baseline="middle" data-node-label="College Park">College Park</text>
    <text x="680" y="431.57" text-anchor="start" dominant-baseline="middle" data-node-label="King Memorial">King Memorial</text>
  </g>
</svg>
