<svg xmlns="http://www.w3.org/2000/svg" width="720" height="480" viewBox="0 0 720 480" role="img" aria-label="bar chart: Enterprise leads NPS at 72, 3 rows" aria-labelledby="mv-0b37020567e691b3-title" aria-describedby="mv-0b37020567e691b3-desc" data-markvis="2" data-chart-type="bar" data-id="mv-0b37020567e691b3" font-family="ui-sans-serif, system-ui, -apple-system, &quot;Segoe UI&quot;, sans-serif" font-size="12">
  <title id="mv-0b37020567e691b3-title">Enterprise leads NPS at 72</title>
  <desc id="mv-0b37020567e691b3-desc">bar chart. Enterprise leads NPS at 72. x=segment. y=score. 3 rows.</desc>
  <text x="48" y="24" text-anchor="start" font-size="17" font-weight="600" fill="#171717">Enterprise leads NPS at 72</text>
  <path d="M48 458 L700 458" fill="none" stroke="#171717" stroke-opacity="0.28" stroke-width="1"/>
  <g fill="#737373" font-size="10" font-weight="400">
    <text x="38" y="458" text-anchor="end" dominant-baseline="middle">0</text>
    <text x="38" y="352.5" text-anchor="end" dominant-baseline="middle">20</text>
    <text x="38" y="247" text-anchor="end" dominant-baseline="middle">40</text>
    <text x="38" y="141.5" text-anchor="end" dominant-baseline="middle">60</text>
    <text x="38" y="36" text-anchor="end" dominant-baseline="middle">80</text>
    <text x="156.67" y="468" text-anchor="middle" font-size="10" data-full-label="Enterprise">Enterprise</text>
    <text x="374" y="468" text-anchor="middle" font-size="10" data-full-label="SMB">SMB</text>
    <text x="591.33" y="468" text-anchor="middle" font-size="10" data-full-label="Consumer">Consumer</text>
  </g>
  <g>
    <path d="M120.67 458 L120.67 81.2 Q120.67 78.2 123.67 78.2 L189.67 78.2 Q192.67 78.2 192.67 81.2 L192.67 458 Z" fill="#3B82F6" data-x="Enterprise" data-series="score" data-y="72"/>
    <path d="M338 458 L338 139.23 Q338 136.23 341 136.23 L407 136.23 Q410 136.23 410 139.23 L410 458 Z" fill="#3B82F6" data-x="SMB" data-series="score" data-y="61"/>
    <path d="M555.33 458 L555.33 170.88 Q555.33 167.88 558.33 167.88 L624.33 167.88 Q627.33 167.88 627.33 170.88 L627.33 458 Z" fill="#3B82F6" data-x="Consumer" data-series="score" data-y="55"/>
  </g>
  <g>
    <text x="156.67" y="70.2" text-anchor="middle" font-size="11" font-weight="500" fill="#171717" data-value-label="Enterprise">72</text>
    <text x="374" y="128.23" text-anchor="middle" font-size="11" font-weight="500" fill="#171717" data-value-label="SMB">61</text>
    <text x="591.33" y="159.88" text-anchor="middle" font-size="11" font-weight="500" fill="#171717" data-value-label="Consumer">55</text>
  </g>
</svg>
