<svg xmlns="http://www.w3.org/2000/svg" version="1.1" xmlns:xlink="http://www.w3.org/1999/xlink" xmlns:svgjs="http://svgjs.com/svgjs" height="145.6320095062256" width="144.447998046875"><g id="SvgjsG1043" rel="mainfill" name="main_text" xmlns:name="mainText_mainfill" transform="translate(-2.2080001831054688,97.23200416564941)"><path fill="#222222" d="M27.488 13.247999999999998 q0 0.16 -0.032 0.192 l0 24.48 q0 0.192 -0.144 0.336 t-0.336 0.144 t-0.32 -0.144 t-0.128 -0.336 l0 -23.104 l-11.04 15.456 q0.128 0.224 0.576 0.832 t1.04 1.424 t1.264 1.696 t1.216 1.664 t0.912 1.328 t0.368 0.672 q0 0.224 -0.16 0.368 t-0.352 0.144 q-0.256 0 -0.384 -0.192 l-17.6 -24.512 q-0.096 -0.128 -0.096 -0.32 t0.128 -0.336 t0.352 -0.144 q0.288 0 0.416 0.224 l11.712 16.32 l11.712 -16.448 q0.128 -0.192 0.352 -0.192 q0.192 0 0.368 0.128 t0.176 0.32 z M16.992 37.92 q0 0.192 -0.16 0.336 t-0.352 0.144 q-0.256 0 -0.384 -0.192 l-12.864 -18.048 l0 17.6 q0 0.224 -0.16 0.352 t-0.352 0.128 t-0.352 -0.144 t-0.16 -0.336 l0 -19.072 q0 -0.224 0.128 -0.416 t0.384 -0.192 t0.384 0.224 q0.224 0.32 0.944 1.296 t1.728 2.384 t2.24 3.104 t2.48 3.44 t2.416 3.392 t2.08 2.944 t1.456 2.128 t0.544 0.928 z M52.544 37.92 q0 0.192 -0.144 0.336 t-0.336 0.144 q-0.384 0 -0.48 -0.32 l-9.312 -23.488 l-1.056 2.72 q0.128 0.256 0.544 1.28 t1.024 2.512 t1.312 3.296 t1.44 3.664 t1.424 3.616 t1.216 3.136 t0.848 2.224 t0.32 0.88 q0 0.352 -0.32 0.448 q-0.064 0 -0.096 0.016 t-0.096 0.016 q-0.32 0 -0.448 -0.32 l-7.68 -19.392 l-7.456 19.392 q-0.128 0.32 -0.48 0.32 q-0.064 0 -0.08 -0.016 t-0.08 -0.016 q-0.32 -0.096 -0.32 -0.48 q0 -0.032 0.384 -1.056 t1.008 -2.656 t1.44 -3.744 t1.664 -4.336 t1.696 -4.4 t1.536 -3.984 t1.168 -3.04 t0.608 -1.584 q0.128 -0.288 0.48 -0.288 t0.448 0.288 q0.128 0.352 0.624 1.584 t1.2 3.04 t1.584 3.984 t1.76 4.4 t1.728 4.336 t1.488 3.76 t1.04 2.672 t0.4 1.056 z M73.72800000000001 18.496 q0 1.12 -0.384 2.128 t-1.056 1.776 t-1.616 1.28 t-2.064 0.672 q-0.16 0.032 -0.336 0.032 l-0.336 0 l-5.568 0 l-0.032 2.144 l5.856 0 q0.288 0 0.448 0.288 q0.096 0.256 0.512 1.152 t0.976 2.112 t1.184 2.56 t1.152 2.496 t0.88 1.936 t0.352 0.88 q0 0.224 -0.16 0.336 t-0.352 0.112 q-0.32 0 -0.448 -0.288 l-4.864 -10.592 l-5.632 0 l0 10.24 q0 0.224 -0.16 0.352 t-0.352 0.128 t-0.336 -0.144 t-0.144 -0.336 l0 -24 l-2.08 0 l0 24.16 q0 0.224 -0.16 0.352 t-0.352 0.128 t-0.336 -0.144 t-0.144 -0.336 l0 -24.64 q0 -0.48 0.48 -0.48 l9.28 0 q1.216 0 2.272 0.432 t1.84 1.2 t1.232 1.808 t0.448 2.256 z M72.736 18.496 q0 -0.992 -0.384 -1.856 t-1.04 -1.504 t-1.52 -1.008 t-1.856 -0.368 l-5.696 0 l0 9.632 l5.696 0 q0.992 0 1.872 -0.384 t1.536 -1.056 t1.024 -1.552 t0.368 -1.904 z M94.62400000000001 37.952 q0 0.192 -0.176 0.32 t-0.336 0.128 q-0.256 0 -0.384 -0.192 l-8.608 -12.032 l-4.736 4.736 l0 6.784 q0 0.192 -0.16 0.336 t-0.352 0.144 t-0.352 -0.128 t-0.16 -0.352 l0 -24.256 q0 -0.224 0.16 -0.352 t0.352 -0.128 t0.352 0.144 t0.16 0.336 l0 11.776 l12.256 -12.288 q0.16 -0.16 0.32 -0.16 q0.192 0 0.352 0.176 t0.16 0.336 q0 0.192 -0.16 0.352 l-12.928 12.96 l0 2.944 q0.128 -0.128 0.512 -0.528 t0.864 -0.912 t1.04 -1.056 t1.04 -1.008 t0.832 -0.768 t0.448 -0.304 q0.288 0 0.448 0.192 q0.192 0.288 0.944 1.328 t1.76 2.416 t2.128 2.912 t2.064 2.864 t1.552 2.24 t0.608 1.04 z M117.56800000000001 13.279999999999998 q0 0.064 -0.4 1.088 t-1.04 2.672 t-1.472 3.744 t-1.728 4.32 t-1.76 4.4 t-1.584 3.968 t-1.2 3.024 t-0.608 1.584 q-0.128 0.32 -0.448 0.32 q-0.096 -0.064 -0.24 -0.128 t-0.208 -0.192 q-0.128 -0.32 -0.608 -1.568 t-1.168 -3.04 t-1.536 -3.968 t-1.712 -4.4 t-1.664 -4.336 t-1.424 -3.744 t-1.008 -2.656 t-0.384 -1.056 q0 -0.224 0.144 -0.368 t0.336 -0.144 q0.384 0 0.48 0.32 l7.424 19.328 l7.648 -19.328 q0.096 -0.32 0.48 -0.32 q0.192 0 0.336 0.144 t0.144 0.336 q0 0.064 -0.32 0.896 t-0.848 2.192 t-1.2 3.104 t-1.408 3.584 t-1.44 3.632 t-1.296 3.28 t-1.008 2.512 t-0.544 1.312 l1.024 2.72 l9.28 -23.392 q0.096 -0.32 0.48 -0.32 q0.192 0 0.336 0.144 t0.144 0.336 z M124.16 37.92 q0 0.224 -0.16 0.352 t-0.352 0.128 t-0.336 -0.144 t-0.144 -0.336 l0 -24.64 q0 -0.192 0.144 -0.336 t0.336 -0.144 t0.352 0.128 t0.16 0.352 l0 24.64 z M146.656 31.52 q0 1.728 -0.752 3.024 t-1.984 2.144 t-2.752 1.28 t-3.056 0.432 q-2.72 0 -5.152 -1.056 t-4.352 -2.88 q-0.192 -0.192 -0.192 -0.352 q0 -0.192 0.16 -0.368 t0.384 -0.176 q0.16 0 0.32 0.16 q1.984 1.664 4.112 2.672 t4.784 1.008 q1.344 0 2.672 -0.368 t2.4 -1.12 t1.728 -1.872 t0.656 -2.624 q0 -1.216 -0.576 -2.096 t-1.504 -1.504 t-2.128 -1.04 t-2.416 -0.72 t-2.384 -0.528 t-2.032 -0.448 q-1.056 -0.288 -2.032 -0.784 t-1.712 -1.232 t-1.168 -1.712 t-0.432 -2.192 q0 -1.632 0.752 -2.832 t1.952 -1.984 t2.656 -1.184 t2.864 -0.4 q0.896 0 2.032 0.192 t2.272 0.56 t2.128 0.88 t1.664 1.152 q0.096 0.096 0.144 0.16 t0.048 0.224 q0 0.192 -0.16 0.352 t-0.352 0.16 q-0.064 0 -0.24 -0.096 t-0.384 -0.24 t-0.384 -0.256 t-0.272 -0.176 q-1.44 -0.864 -3.072 -1.376 t-3.36 -0.512 q-1.216 0 -2.496 0.304 t-2.352 0.944 t-1.76 1.648 t-0.688 2.416 q0 1.536 0.704 2.512 t1.856 1.6 t2.624 1.008 t3.024 0.736 t3.024 0.768 t2.624 1.136 t1.856 1.824 t0.704 2.832 z"></path></g><defs id="SvgjsDefs1042"></defs><g id="SvgjsG1044" rel="mainfill" name="monogram" xmlns:name="monogram_mainfill" transform="translate(26.57400870323181,-19.900005340576172) scale(1)"><path fill="#222222" d="M56.6 42.7 l0 0 l0 0 l0 0 l0 0 l4 -7.4 l0 0 l6.5 -12.6 l0 0 l0 0 l0 0 l0 0 l0 -0.1 l0.1 0 l0 0 l0 0 l0 0 l0 0 l0 0 l0 0 l0 0 l10.2 -0.2 l0 0 l0 0 l0 0 l0 0 l13.4 0 l0 0.1 l0 -0.1 l0 0.1 l0 0 l0 0 l0 0 l0 0 l0.1 0 l0 0 l0 0 l0 0 l0 0 l0 0 l0 0 l0 0.1 l0 0 l0 0 l0 0 l0 0 l0 0 l0 0 l0 0 l-1.5 18.6 l1.5 9.5 l0 0 l0 0 l0.2 11.8 l0 0 l0 0 l0.2 18.5 l0 0 l0 0 l-0.8 19.4 l0.3 19.3 l0 0 l0 0.1 l0 0 l0 0 l0 0 l0 0 l0 0 l-0.1 0 l0 0.1 l0 0 l0 0 l0 0 l0 0 l0 0 l0 0 l0 0 l-0.1 0 l0 0 l0 0 l0 0 l0 0 l-8.7 -0.2 l0 0 l0 0 l-14.5 -0.1 l0 0 l0 0 l0 0 l-0.1 0 l0 0 l0 0 l0 0 l0 -0.1 l0 0 l0 0 l0 0 l0 0 l0 0 l0 0 l0 0 l0 -0.1 l0 0 l0 0 l0 0 l0 0 l-0.8 -14.9 l0 0 l0 0 l0 0 l0 0 l0.8 -20.7 l0 0 l0 0 l-0.4 -10.6 l-6 11 l0 0 l0 0 l-7.8 13.4 l0 0 l0 0 l-0.1 0 l0 0 l0 0 l0 0 l0 0 l0 0 l0 0 l0 0 l-0.1 0 l0 0 l-14.6 -0.3 l0 0 l-0.1 0 l0 0 l0 0 l0 0 l0 0 l0 0 l0 0 l0 0 l-12.8 -21 l-1.3 -0.3 l-0.1 17.8 l0.6 9.1 l0 0 l0 0 l0 0 l0 0 l0 0 l0 0 l-0.6 16.9 l0 0 l0 0 l0 0 l0 0 l0 0 l0 0 l0 0 l0 0 l0 0 l0 0 l0 0.1 l0 0 l0 0 l-0.1 0 l0 0 l0 0 l0 0 l0 0 l-0.1 0 l0 0 l0 0 l-11.1 -0.3 l0 0 l0 0 l-12.1 0.3 l0 0 l0 0 l0 0 l0 0 l0 0 l-0.1 0 l0 0 l0 0 l0 0 l0 0 l0 -0.1 l0 0 l0 0 l0 0 l0 0 l0 0 l0 0 l0 0 l0 -0.1 l0 0 l-0.5 -11.6 l0 0 l0 0 l0 0 l0 0 l0.3 -14.3 l0 0 l0 0 l-0.1 -12.5 l0 0 l0 0 l0 -13.1 l0 0 l0 0 l0 0 l0 0 l0 0 l0 0 l0 0 l0 0 l3.5 -10.8 l-3.7 -12.6 l0 -0.1 l0 0 l0 0 l0 -13 l0 0 l0 0 l0 0 l0.5 -8.3 l0 0 l0 0 l0 0 l0 0 l0 0 l0 0 l0 0 l0 -0.1 l0 0 l0 0 l0 0 l0 0 l0 0 l0.1 0 l0 0 l0 0 l0 -0.1 l11.8 -3.3 l0 0 l0 0 l0 0 l0 0 l0 0 l0 0 l0 0 l0 0 l0 0 l0 0 l0 0 l11.3 2.9 l0 0 l0 0 l0 0 l0.1 0 l0 0 l0 0 l0 0 l0 0 l0 0 l0 0 l0 0.1 l6.2 11.9 l0 0 l0 0 l0 0 l0 0 l2.6 9 l7.6 11.3 l0 0 l0 0 l5.7 9.8 l5.5 -10.4 z M16.6 113.7 l4.2 -5.9 l-0.8 -2.9 l-1.6 0.7 l-2.9 7.3 z M20.9 108.3 l-4.1 5.6 l6.8 5.4 z M77.5 23.200000000000003 l-0.3 0 l-12.8 15.2 l20.3 4.2 z M89.8 50.900000000000006 l0 -0.1 l-2.4 -0.3 l0.4 1.1 z M87.5 51.7 l-0.4 -1.2 l-2.6 -0.3 l-1.7 3.1 z M86.5 57.6 l1.8 -3 l-0.7 -2.6 l-4.8 1.7 z M88.5 55 l-1.7 2.9 l3.8 4 z M84.2 114.8 l0 0 l0 0 z M84 114.3 l0.1 -0.2 l-7.4 -17.2 l-9.8 7.6 z M77.1 96.9 l7.2 16.8 l5.8 -13.2 z M72.9 86.6 l5.8 -1.8 l-6.7 -0.5 z M79.6 84.8 l-5 1.6 l9.3 -1.3 z M72.5 86.5 l-0.9 -2.2 l-3.5 -0.3 z M85 85.3 l-12 1.7 l3.8 9.4 z M85.2 84.9 l-0.3 -1.8 l-4.5 1.5 z M85.2 83 l0.3 1.8 l4.7 -3.4 z M79.5 84.5 l5.3 -1.7 l-2.7 -17.2 l-14.8 7 l4.5 11.4 z M76 57.2 l-6.3 -8.5 l-2.7 13.8 z M70.1 48.7 l6.2 8.4 l5.9 -3.5 z M76.2 57.5 l-9 5.2 l14.6 2.5 z M81.7 65.4 l-14.8 -2.4 l0.3 9.3 z M76.5 57.3 l5.5 7.6 l0.3 -11 z M82.4 53.400000000000006 l0.7 -3.4 l-12.3 -1.3 z M83.5 50.099999999999994 l-0.6 2.4 l1.3 -2.3 z M70.3 48.3 l12.9 1.4 l1.5 -6.7 z M69.7 48.2 l14.6 -5.4 l-19.9 -4.1 z M66.7 62.6 l2.7 -14 l-17.5 6 z M82.7 54 l-0.3 10.8 l4 -6.9 z M84.7 49.900000000000006 l2.3 0.3 l-0.9 -2.9 z M84.4 49.900000000000006 l1.6 -3.1 l-1.1 -3.4 l-1.4 6.4 z M85.3 43.599999999999994 l0.9 2.9 l0.5 -1 z M85.2 42.900000000000006 l1.7 2.3 l2 -3.7 z M77.8 23.200000000000003 l7 18.9 l2.6 -18.7 z M63.3 38.8 l0.5 -0.3 l-2.1 -2 z M64.1 38.8 l-0.5 0.5 l4.1 5.9 z M69.2 48 l-5.8 -8.4 l-3.4 4.4 z M69.2 48.3 l-9.4 -4 l-7.8 9.9 z M52.3 53.3 l7.2 -9.2 l-2.3 -1 z M66.3 62.7 l-14.6 -7.8 l1.5 9.3 z M64.9 63.2 l-11.7 1.3 l0.3 1.9 z M46.1 65.4 l0.1 0.1 l1.7 0.2 z M53.2 66.8 l-7 -1 l2.8 19.4 z M53.2 66.4 l-0.3 -1.8 l-5.9 0.7 z M45.5 65.4 l0.1 -0.1 l-1.5 -0.1 z M0.5 69 l0 12 l4.3 -2 z M0.6 68.5 l4.5 10.4 l10.9 -5.1 z M23.6 93.9 l-1.5 -0.8 l-0.8 3.3 z M22.2 92.8 l1.4 0.7 l-0.9 -2.4 z M22.8 90.6 l0.8 2 l-0.3 -3.8 z M22.6 90.1 l0.6 -2.2 l-1.5 -0.2 z M22.5 90.6 l-1.1 -2.9 l-12.5 -1.7 l13 6.7 z M8.4 85.6 l12.9 1.7 l-3.4 -8.9 z M8.7 85 l9.1 -6.9 l-1.5 -4 z M15.9 74.2 l-10.6 5 l2.7 6.2 z M21.8 93 l-13.4 -6.8 l9.7 13.7 l2.7 -3 z M20.6 97.6 l-2.3 2.6 l1.2 1.7 z M19.1 101.9 l-1 -1.5 l-0.7 0.7 z M19.1 102.2 l-1.9 -0.8 l-1.9 2 z M18.6 102.7 l-3.7 1.1 l-3.6 4 z M10.5 108.8 l4.8 3.8 l2.7 -6.9 z M15.1 113 l-4.7 -3.8 l2.4 9.7 z M11.5 108.1 l6.7 -2.8 l1 -2.6 z M19.5 102.8 l-0.9 2.4 l1.4 -0.6 z M19.8 102.4 l0.5 2.1 l3.6 -1.5 z M21.1 97.1 l-1 3.8 l3.1 -6.1 z M21.6 87.4 l1.5 0.2 l-4.8 -9.5 l-0.1 0.1 z M18.1 77.9 l0.1 -0.1 l-0.6 -1.3 z M16.7 74 l1.8 3.6 l3 -2.3 z M17.5 73.9 l4.4 1.2 l1.6 -1.3 z M16.6 73.6 l7.2 -0.1 l-3.5 -11.7 z M20.8 62.1 l3.3 11.3 l3.4 -2 z M20.7 61.5 l7.1 9.7 l10.9 -6.4 z M38.7 65.2 l-10.7 6.3 l4.4 6.1 z M39.2 64.9 l-6.2 12.3 l12.2 -11.5 z M21 61.2 l18 3.4 l0.9 -9.2 z M0.6 32.2 l5.3 10.1 l2.3 -0.9 l2 -6.2 l-9.6 -3.2 l0 0.2 z M5.6 42.400000000000006 l-5 -9.6 l-0.3 11.7 z M17.7 37.7 l-7.2 -2.4 l-1.9 6 z M10.5 35 l7.3 2.4 l-4.6 -10.8 z M16.9 38.400000000000006 l-8.5 3.3 l-1 3.1 z M13.5 26.5 l3.4 7.8 l-2.4 -7.3 z M10.2 34.900000000000006 l2.7 -8.5 l-12.3 5.3 l0 0 z M8.1 41.8 l-2.1 0.8 l1.1 2.2 z M18.1 37.900000000000006 l-10.7 7.3 l12.9 15.8 l11.9 -17 z M18.1 37.2 l2.7 -7 l-5.9 -3 z M21 30.400000000000006 l-2.6 7.1 l11 -2.7 z M14.7 26.700000000000003 l6.2 3.2 l2.5 -6.7 l-8.9 2.7 z M14.3 26.5 l-0.1 -0.5 l-0.6 0.1 z M13.3 25.900000000000006 l0.8 -0.2 l-1.3 -3.9 z M13 25.900000000000006 l-0.7 -5.5 l-4.6 4.4 z M12.7 26.200000000000003 l-5.3 -1.2 l-6.5 6.2 z M0.6 31 l6.4 -6.1 l-6.2 -1.3 z M5.7 42.7 l-4.8 1.9 l6 0.4 z M19.9 61 l-12.7 -15.5 l-3.2 11.8 z M19.8 61.3 l-15.6 -3.6 l5.5 7.1 z M20.1 61.5 l-10.2 3.6 l6.4 8.4 z M15.9 73.5 l-6.3 -8.3 l-8.8 3 z M5 79.3 l-4.3 2 l6.9 4 z M17.9 100.1 l-10 -14.1 l-7.2 7.8 l16.4 7.2 z M16.9 101.2 l-16 -7 l7.4 11.3 l6.4 -1.9 z M14.3 104 l-5.9 1.8 l1.8 2.7 z M9.9 108.6 l-1.8 -2.7 l-7.1 2.1 z M9.8 108.9 l-9.2 -0.6 l5.5 4.9 z M10.1 109.1 l-3.8 4.4 l6.1 5.5 z M15.4 113.2 l-2 5.1 l3 -4.3 z M20.3 104.8 l0.7 2.7 l3 -4.2 z M19.8 102.1 l4.5 0.6 l-0.6 -8.2 z M23.2 87.2 l0.5 -11.3 l-1.8 -0.5 l-3.3 2.5 z M22.3 75.2 l1.5 0.3 l0 -1.5 z M27.7 71.7 l-3.4 1.9 l7.6 3.9 z M45.6 65.8 l-12.9 12.1 l16.1 7.9 l-2.9 -20 l-0.3 0 z M53.5 67.2 l-4.3 18.6 l11.3 -1.8 z M66.6 63 l-12.7 3.7 l13 5.6 z M71.5 83.9 l-4.2 -10.5 l0.3 10.3 z M72.6 86.9 l-4.6 -2.6 l3.7 5.2 z M72.8 87.3 l-0.8 2.5 l4.2 5.8 z M76.6 96.7 l-4.8 -6.6 l-4.9 13.9 z M83.9 114.6 l-16.3 -9.4 l11.1 11 l5.1 -1.3 z M83.6 115.2 l-4.6 1.3 l2.8 2.8 z M84 115.1 l-0.7 1.7 l1 -1.7 l-0.3 0 z M84.5 114.1 l0.1 0.3 l2.3 -5.9 z M77.1 96.6 l13 3.5 l-4.3 -13.1 z M78.8 94.3 l6.9 -7.7 l-0.4 -1.2 z M85.6 85.1 l0.4 1.3 l4 -4.4 z M85.2 82.7 l5.7 -1.8 l-8.4 -14.7 z M86.6 58.2 l-4.1 6.9 l8.2 -2.7 z M88.7 54.599999999999994 l2 6.5 l-0.7 -8.6 z M88.6 54.2 l1.3 -2.3 l0 -0.7 l-2 0.7 z M90.2 51.099999999999994 l0 0.3 l0.2 -0.4 z M90.1 50.5 l0.3 0 l-0.3 -0.4 l0 0.4 z M89.8 50.5 l-0.1 -0.9 l-2.8 -3.8 l-0.6 1.1 l1 3.3 z M87.1 45.5 l2.6 3.5 l-0.6 -7.2 z M85.1 42.5 l3.9 -1.4 l-0.8 -9.1 z M85.4 40.7 l2.7 -9.6 l-0.5 -6.4 z M87.8 23.400000000000006 l0.6 6.9 l2.2 -7.5 z M77.7 22.900000000000006 l1.8 0 l-1.8 -0.1 l0 0.1 z M76.4 23.599999999999994 l-10.8 8.2 l-1.2 6.1 z M65.7 31.400000000000006 l10.8 -8.3 l-9.1 -0.2 z M64 38.2 l1.2 -6.1 l-4.2 3.2 z M63 38.900000000000006 l-2.2 -3.3 l-3.1 6.5 z M63.2 39.2 l-5.8 3.4 l-0.1 0.3 l2.4 1 l3.6 -4.6 z M56.8 43 l-0.4 1.1 l0.5 -1.1 l-0.1 0 z M51.4 55.099999999999994 l-5.2 9.9 l6.7 -0.7 z M39.3 64.6 l6.4 0.4 l-5.5 -9.3 z M20.7 61 l19.1 -5.9 l-7.4 -10.9 z M18.6 37.8 l13.6 5.8 l-2.4 -8.6 z M21.2 30.099999999999994 l8.3 4.4 l-5.8 -11.2 z M14.4 25.599999999999994 l8.7 -2.7 l-10.5 -2.6 z M7.3 24.700000000000003 l4.5 -4.3 l-10.5 3 z M7 45.3 l-6.6 -0.4 l3.4 11.9 z M3.9 57.8 l-3.3 10.2 l8.8 -3.1 z M7.7 85.8 l-7.2 -4.2 l0.1 11.8 z M0.6 94.4 l-0.3 13.5 l7.6 -2.3 z M5.9 113.5 l-5.6 -5 l0.5 10.8 z M6.1 113.7 l-5.1 5.9 l11.3 -0.3 z M16.7 114.2 l-3.7 5.1 l10.4 0.3 z M23.7 118.6 l0.6 -15.2 l-3.2 4.5 z M23.7 90.2 l0.1 -8 l-0.3 5.6 z M31.1 77.4 l-6.7 -3.4 l1.2 2 z M48.7 86.1 l-16 -7.9 l5.7 18.7 z M48.9 86.3 l-10.2 10.7 l14 0.3 z M53 97.1 l7.4 -12.8 l-11.2 1.9 z M60.8 83.8 l6.1 -11.2 l-13.2 -5.7 z M67.6 84.3 l-0.8 19.1 l4.8 -13.6 z M78.4 116.3 l-11.6 -11.4 l0.8 14.3 z M78.6 116.6 l-10 2.7 l12.9 0.1 z M84.6 115.1 l-2.5 4.3 l8.1 0.2 z M84.8 114.8 l5.7 4.6 l-0.3 -18.2 z M90.2 99.5 l0.7 -18.1 l-4.8 5.3 z M82.4 65.5 l8.5 14.8 l-0.1 -17.6 z M90.2 52 l0.5 5.9 l-0.1 -6.6 z M90 49.5 l0.5 0.6 l-0.8 -5.1 z M88.5 31.099999999999994 l0.7 8.3 l1.3 -15.2 z M87.6 23.099999999999994 l1.6 -0.3 l-6.7 0 z M76.9 22.799999999999997 l-1.5 0 l1.5 0 z M65.3 31.700000000000003 l1.6 -7.9 l-5.7 11 z M57.2 42.400000000000006 l0.1 -0.3 l-0.1 0.3 l0 0 z M24.2 75.6 l1 0.3 l-1 -1.7 l0 1.4 z M32.3 78.1 l-6.4 -1.7 l11.9 19.6 z"></path></g></svg>
